<?xml version="1.0" standalone="no"?><!DOCTYPE svg PUBLIC "-//W3C//DTD SVG 1.1//EN" "http://www.w3.org/Graphics/SVG/1.1/DTD/svg11.dtd"><svg t="1562215306637" class="icon" viewBox="0 0 1051 1024" version="1.1" xmlns="http://www.w3.org/2000/svg" p-id="3405" xmlns:xlink="http://www.w3.org/1999/xlink" width="57.4765625" height="56"><defs><style type="text/css"></style></defs><path d="M937.18158787 886.51098002a46.2238179 46.2238179 0 0 1-46.2010136 46.2238171h-213.33192572V608.52956069h108.82094569l16.30489939-126.33445926h-125.12584508v-80.68074361c0-36.57770288 10.17060782-61.50253354 62.61993293-61.50253355l66.90709424-0.02280432V226.9721286c-11.58445926-1.52787141-51.28631791-4.97128355-97.48733149-4.97128437-96.46114857 0-162.50168931 58.8800679-162.50168846 167.01689219v93.17736501h-109.09459508v126.33445926h109.09459506V932.73479712H146.22297282a46.2238179 46.2238179 0 0 1-46.20101356-46.22381707V141.7761821c0-25.54054073 20.68327717-46.2238179 46.20101359-46.22381707h744.75760142c25.51773642 0 46.20101358 20.68327717 46.2010136 46.22381707v744.73479795" fill="#ffffff" p-id="3406" data-spm-anchor-id="a313x.7781069.0.i12" class="selected"></path></svg>