<svg version="1.1" id="Layer_1" xmlns="http://www.w3.org/2000/svg" xmlns:xlink="http://www.w3.org/1999/xlink" x="0px" y="0px"
viewBox="0 0 56 56" style="enable-background:new 0 0 56 56;" xml:space="preserve">
<style type="text/css">
.st0{fill:#FBBB00;}
.st1{fill:#518EF8;}
.st2{fill:#28B446;}
.st3{fill:#F14336;}
</style>
<path class="st0" d="M12.4,33.8l-1.9,7.3l-7.1,0.2C1.2,37.3,0,32.8,0,28c0-4.6,1.1-9,3.1-12.9h0l6.3,1.2l2.8,6.3
c-0.6,1.7-0.9,3.5-0.9,5.4C11.4,30.1,11.7,32,12.4,33.8z"/>
<path class="st1" d="M55.5,22.8c0.3,1.7,0.5,3.4,0.5,5.2c0,2-0.2,4-0.6,5.8c-1.4,6.4-4.9,12-9.9,16l0,0l-8-0.4l-1.1-7.1
c3.3-1.9,5.8-4.9,7.2-8.5h-15V22.8h15.2H55.5L55.5,22.8z"/>
<path class="st2" d="M45.5,49.8L45.5,49.8C40.7,53.7,34.6,56,28,56C17.3,56,8.1,50,3.3,41.3l9.1-7.4c2.4,6.3,8.5,10.8,15.6,10.8
c3.1,0,5.9-0.8,8.4-2.3L45.5,49.8z"/>
<path class="st3" d="M45.9,6.4l-9.1,7.4c-2.6-1.6-5.6-2.5-8.8-2.5c-7.3,0-13.5,4.7-15.7,11.2l-9.1-7.5h0C7.8,6.1,17.2,0,28,0
C34.8,0,41,2.4,45.9,6.4z"/>
</svg>