<?xml version="1.0" encoding="utf-8"?>
<!-- Generator: Adobe Illustrator 21.1.0, SVG Export Plug-In . SVG Version: 6.00 Build 0)  -->
<svg version="1.1" id="Layer_1" xmlns="http://www.w3.org/2000/svg" xmlns:xlink="http://www.w3.org/1999/xlink" x="0px" y="0px"
	 viewBox="0 0 56 56" style="enable-background:new 0 0 56 56;" xml:space="preserve">
<style type="text/css">
	.st0{fill:#3AAE36;}
	.st1{fill:#FFFFFF;}
</style>
<g>
	<circle class="st0" cx="28" cy="28" r="28"/>
	<g id="TYPE_A_19_">
		<g>
			<path class="st1" d="M46.6,26.3c0-8.3-8.4-15.1-18.6-15.1C17.7,11.2,9.4,18,9.4,26.3C9.4,33.8,16,40,25,41.2
				c0.6,0.1,1.4,0.4,1.6,0.9c0.2,0.5,0.1,1.2,0.1,1.7c0,0-0.2,1.3-0.3,1.6c-0.1,0.5-0.4,1.8,1.6,1c2-0.8,10.7-6.3,14.6-10.8h0
				C45.3,32.7,46.6,29.7,46.6,26.3"/>
			<g>
				<path class="st0" d="M24.2,22.3h-1.3c-0.2,0-0.4,0.2-0.4,0.4v8.1c0,0.2,0.2,0.4,0.4,0.4h1.3c0.2,0,0.4-0.2,0.4-0.4v-8.1
					C24.6,22.5,24.4,22.3,24.2,22.3"/>
				<path class="st0" d="M33.2,22.3h-1.3c-0.2,0-0.4,0.2-0.4,0.4v4.8l-3.7-5c0,0,0,0,0,0c0,0,0,0,0,0c0,0,0,0,0,0c0,0,0,0,0,0
					c0,0,0,0,0,0c0,0,0,0,0,0c0,0,0,0,0,0c0,0,0,0,0,0c0,0,0,0,0,0c0,0,0,0,0,0c0,0,0,0,0,0c0,0,0,0,0,0c0,0,0,0,0,0c0,0,0,0,0,0
					c0,0,0,0,0,0c0,0,0,0,0,0c0,0,0,0,0,0c0,0,0,0,0,0c0,0,0,0,0,0h-1.3c-0.2,0-0.4,0.2-0.4,0.4v8.1c0,0.2,0.2,0.4,0.4,0.4h1.3
					c0.2,0,0.4-0.2,0.4-0.4v-4.8l3.7,5c0,0,0.1,0.1,0.1,0.1c0,0,0,0,0,0c0,0,0,0,0,0c0,0,0,0,0,0c0,0,0,0,0,0c0,0,0,0,0,0
					c0,0,0,0,0,0c0,0,0,0,0,0c0,0,0,0,0,0c0,0,0.1,0,0.1,0h1.3c0.2,0,0.4-0.2,0.4-0.4v-8.1C33.6,22.5,33.4,22.3,33.2,22.3"/>
				<path class="st0" d="M21.1,29.1h-3.5v-6.4c0-0.2-0.2-0.4-0.4-0.4h-1.3c-0.2,0-0.4,0.2-0.4,0.4v8.1v0c0,0.1,0,0.2,0.1,0.3
					c0,0,0,0,0,0c0,0,0,0,0,0c0.1,0.1,0.2,0.1,0.3,0.1h0h5.2c0.2,0,0.4-0.2,0.4-0.4v-1.3C21.4,29.3,21.3,29.1,21.1,29.1"/>
				<path class="st0" d="M40.4,24.3c0.2,0,0.4-0.2,0.4-0.4v-1.3c0-0.2-0.2-0.4-0.4-0.4h-5.2h0c-0.1,0-0.2,0-0.3,0.1c0,0,0,0,0,0
					c0,0,0,0,0,0c-0.1,0.1-0.1,0.2-0.1,0.2v0v8.1v0c0,0.1,0,0.2,0.1,0.3c0,0,0,0,0,0c0,0,0,0,0,0c0.1,0.1,0.2,0.1,0.3,0.1h0h5.2
					c0.2,0,0.4-0.2,0.4-0.4v-1.3c0-0.2-0.2-0.4-0.4-0.4h-3.5v-1.4h3.5c0.2,0,0.4-0.2,0.4-0.4v-1.3c0-0.2-0.2-0.4-0.4-0.4h-3.5v-1.4
					H40.4z"/>
			</g>
		</g>
	</g>
</g>
</svg>
