<?xml version="1.0" encoding="utf-8"?>
<!-- Generator: Adobe Illustrator 21.1.0, SVG Export Plug-In . SVG Version: 6.00 Build 0)  -->
<svg version="1.1" id="Layer_1" xmlns="http://www.w3.org/2000/svg" xmlns:xlink="http://www.w3.org/1999/xlink" x="0px" y="0px"
	 viewBox="0 0 56 56" style="enable-background:new 0 0 56 56;" xml:space="preserve">
<style type="text/css">
	.st0{fill:#FFFFFF;}
	.st1{fill:#3AAE36;}
</style>
<g>
	<g id="TYPE_A_19_">
		<g>
			<path class="st0" d="M55.3,24.8c0-12.4-12.4-22.4-27.6-22.4C12.5,2.3,0.1,12.4,0.1,24.8c0,11.1,9.8,20.4,23.1,22.1
				c0.9,0.2,2.1,0.6,2.4,1.4c0.3,0.7,0.2,1.8,0.1,2.5c0,0-0.3,1.9-0.4,2.4c-0.1,0.7-0.6,2.7,2.4,1.5c2.9-1.2,15.9-9.4,21.7-16h0
				C53.4,34.2,55.3,29.7,55.3,24.8"/>
			<g>
				<path class="st1" d="M22.1,18.8h-1.9c-0.3,0-0.5,0.2-0.5,0.5v12c0,0.3,0.2,0.5,0.5,0.5h1.9c0.3,0,0.5-0.2,0.5-0.5v-12
					C22.6,19,22.4,18.8,22.1,18.8"/>
				<path class="st1" d="M35.4,18.8h-1.9c-0.3,0-0.5,0.2-0.5,0.5v7.2L27.4,19c0,0,0,0,0-0.1c0,0,0,0,0,0c0,0,0,0,0,0c0,0,0,0,0,0
					c0,0,0,0,0,0c0,0,0,0,0,0c0,0,0,0,0,0c0,0,0,0,0,0c0,0,0,0,0,0c0,0,0,0,0,0c0,0,0,0,0,0c0,0,0,0,0,0c0,0,0,0,0,0c0,0,0,0,0,0
					c0,0,0,0,0,0c0,0,0,0,0,0c0,0,0,0,0,0c0,0,0,0,0,0c0,0,0,0,0,0H25c-0.3,0-0.5,0.2-0.5,0.5v12c0,0.3,0.2,0.5,0.5,0.5H27
					c0.3,0,0.5-0.2,0.5-0.5v-7.2l5.5,7.5c0,0.1,0.1,0.1,0.1,0.1c0,0,0,0,0,0c0,0,0,0,0,0c0,0,0,0,0,0c0,0,0,0,0,0c0,0,0,0,0,0
					c0,0,0,0,0,0c0,0,0,0,0,0c0,0,0,0,0,0c0,0,0.1,0,0.1,0h1.9c0.3,0,0.5-0.2,0.5-0.5v-12C36,19,35.7,18.8,35.4,18.8"/>
				<path class="st1" d="M17.4,28.9h-5.3v-9.6c0-0.3-0.2-0.5-0.5-0.5H9.7c-0.3,0-0.5,0.2-0.5,0.5v12v0c0,0.1,0.1,0.3,0.2,0.4
					c0,0,0,0,0,0c0,0,0,0,0,0c0.1,0.1,0.2,0.2,0.4,0.2h0h7.7c0.3,0,0.5-0.2,0.5-0.5v-1.9C17.9,29.1,17.7,28.9,17.4,28.9"/>
				<path class="st1" d="M46.1,21.8c0.3,0,0.5-0.2,0.5-0.5v-1.9c0-0.3-0.2-0.5-0.5-0.5h-7.7h0c-0.1,0-0.3,0.1-0.4,0.2c0,0,0,0,0,0
					c0,0,0,0,0,0c-0.1,0.1-0.1,0.2-0.1,0.4v0v12v0c0,0.1,0.1,0.3,0.2,0.4c0,0,0,0,0,0c0,0,0,0,0,0c0.1,0.1,0.2,0.2,0.4,0.2h0h7.7
					c0.3,0,0.5-0.2,0.5-0.5v-1.9c0-0.3-0.2-0.5-0.5-0.5h-5.3v-2h5.3c0.3,0,0.5-0.2,0.5-0.5v-1.9c0-0.3-0.2-0.5-0.5-0.5h-5.3v-2H46.1
					z"/>
			</g>
		</g>
	</g>
</g>
</svg>
